<?xml version="1.0" standalone="no"?>
<!DOCTYPE svg PUBLIC "-//W3C//DTD SVG 20010904//EN"
 "http://www.w3.org/TR/2001/REC-SVG-20010904/DTD/svg10.dtd">
<svg version="1.0" xmlns="http://www.w3.org/2000/svg"
 width="400.000000pt" height="400.000000pt" viewBox="0 0 400.000000 400.000000"
 preserveAspectRatio="xMidYMid meet">
<metadata>
Created by potrace 1.14, written by Peter Selinger 2001-2017
</metadata>
<g transform="translate(0.000000,400.000000) scale(0.100000,-0.100000)"
fill="#000000" stroke="none">
<path d="M1865 3469 c-134 -8 -292 -45 -330 -79 -11 -10 -33 -25 -50 -33 -42
-22 -191 -178 -209 -219 -8 -18 -24 -58 -36 -88 -12 -30 -30 -64 -40 -75 -33
-35 -78 -262 -72 -354 2 -35 27 -62 48 -54 7 2 15 0 19 -6 4 -8 -28 -11 -102
-11 -105 0 -478 -11 -478 -14 0 0 1 -99 3 -219 l3 -218 349 3 c284 2 351 0
355 -10 8 -20 6 -62 -2 -62 -5 0 -24 -29 -43 -65 -37 -69 -47 -76 -130 -100
-81 -22 -123 -61 -144 -132 -9 -32 -27 -80 -40 -108 -13 -27 -23 -52 -23 -55
1 -23 -88 -158 -139 -210 l-64 -66 0 -295 0 -296 96 -95 96 -96 222 -6 c121
-3 484 -8 806 -11 l585 -5 -35 33 c-19 19 -53 45 -75 59 -22 14 -46 33 -54 42
-14 17 -41 22 -41 8 0 -5 7 -29 16 -55 31 -90 9 -83 -39 13 -26 52 -67 131
-92 175 -25 44 -43 87 -41 97 2 9 -11 31 -30 49 -19 18 -34 37 -34 42 0 5 -15
32 -33 60 -71 110 -87 137 -89 144 -1 5 -14 22 -30 38 -15 17 -28 35 -28 40 0
6 -14 26 -31 45 -16 19 -57 71 -89 115 -33 44 -64 85 -68 90 -4 6 -46 56 -92
113 -47 57 -89 111 -95 120 -5 9 -18 25 -28 36 -10 12 -28 34 -39 49 l-20 28
48 -33 c27 -18 53 -38 59 -43 5 -6 19 -17 30 -25 11 -8 -2 10 -30 39 -27 30
-43 50 -35 46 13 -8 13 -7 1 8 -7 9 -20 17 -29 17 -8 0 -12 3 -9 7 4 3 1 13
-6 21 -10 13 -9 14 1 8 13 -8 13 -6 -2 63 -3 13 -2 29 1 35 12 18 10 46 -1 39
-6 -4 -4 2 4 12 8 10 11 16 5 14 -5 -3 -17 2 -27 12 -15 16 -15 19 7 39 22 21
25 21 40 6 9 -9 14 -20 10 -25 -3 -5 -1 -12 5 -16 5 -3 10 -11 10 -16 0 -6 -6
-7 -12 -3 -10 6 -10 5 -1 -8 7 -8 10 -18 6 -22 -8 -8 29 -36 39 -30 4 3 5 -2
2 -11 -4 -11 -2 -14 9 -9 8 3 18 1 21 -5 4 -6 14 -7 23 -4 10 4 14 2 10 -4 -3
-5 0 -10 8 -10 8 0 12 3 10 7 -9 14 35 3 53 -13 10 -9 23 -14 27 -10 5 5 3 0
-4 -9 -12 -16 -9 -22 10 -20 4 1 15 -8 24 -18 19 -21 41 -27 29 -8 -4 6 -3 8
3 5 6 -4 18 2 28 13 10 11 22 17 28 13 5 -3 7 -1 4 4 -4 6 3 19 14 29 45 40
43 60 -3 40 -28 -13 -74 1 -134 39 -72 46 -120 96 -102 106 7 3 179 9 382 13
204 4 371 8 372 9 1 1 4 26 8 55 6 49 6 52 -16 53 -13 0 -17 3 -10 6 17 7 15
44 -4 71 -8 12 -13 22 -9 22 3 0 -4 19 -16 41 -15 31 -18 47 -11 63 8 19 13
14 40 -44 l30 -65 1 122 1 121 -75 4 c-41 2 -77 0 -79 -5 -3 -4 -3 -2 -2 5 2
7 10 12 20 10 10 -2 16 4 16 17 0 11 5 23 12 27 7 5 8 3 3 -6 -6 -9 -4 -11 4
-6 7 5 10 14 7 22 -3 8 0 14 7 14 8 0 6 4 -3 10 -8 5 -10 10 -5 11 6 0 18 2
28 4 11 2 17 1 14 -2 -6 -6 43 -63 54 -63 4 0 9 10 11 23 3 19 11 23 68 30 64
8 170 57 170 78 0 6 6 7 13 3 6 -4 9 -4 5 1 -4 4 2 22 15 39 12 16 23 37 25
46 8 32 10 80 3 85 -8 4 -11 -10 -13 -57 0 -19 -5 -26 -19 -25 -10 1 -21 7
-24 15 -2 7 -1 11 3 8 4 -2 8 5 9 17 0 12 -1 16 -4 10 -8 -23 -20 -14 -16 11
3 13 0 33 -6 45 -10 18 -8 21 21 29 38 10 52 6 44 -15 -3 -8 -1 -11 4 -8 6 3
10 18 10 32 0 13 9 36 20 50 46 59 9 193 -64 230 -30 15 -66 49 -66 62 0 14
-69 46 -125 58 -33 6 -78 16 -100 22 -22 5 -67 15 -100 21 -33 6 -89 17 -125
25 -80 17 -184 22 -315 14z m659 -471 c-6 -10 -4 -10 7 0 17 16 25 15 27 -3 1
-8 3 -22 4 -30 1 -8 5 -15 10 -15 12 0 10 -58 -2 -65 -6 -4 -8 -11 -5 -16 4
-5 2 -9 -3 -9 -6 0 -13 -11 -16 -25 -3 -13 -20 -40 -37 -60 -28 -32 -36 -35
-84 -35 -30 0 -60 6 -67 13 -27 25 -52 42 -44 30 5 -9 2 -11 -8 -7 -16 6 -12
57 6 81 5 7 5 14 -2 18 -20 12 -10 25 19 25 17 0 33 5 36 11 4 6 14 8 22 5 8
-4 11 -1 8 5 -4 6 -13 8 -21 5 -8 -3 -14 0 -14 5 0 7 11 9 25 7 14 -3 23 -1
22 6 -1 5 9 11 23 12 13 1 26 7 28 13 2 6 12 11 22 11 9 0 23 7 30 15 15 18
24 20 14 3z m-249 -357 c-3 -6 -16 -16 -28 -22 -20 -11 -20 -9 3 13 25 24 38
29 25 9z m-62 -58 c-7 -2 -19 -2 -25 0 -7 3 -2 5 12 5 14 0 19 -2 13 -5z
m-948 -13 c3 -5 3 -10 -2 -10 -4 0 -18 -3 -30 -6 -17 -5 -23 -2 -23 10 0 18
45 23 55 6z m144 -6 c2 -2 -25 -4 -60 -3 -47 1 -57 3 -39 9 22 7 89 3 99 -6z
m198 5 c-25 -14 -177 -15 -177 -1 0 4 43 8 95 8 52 0 89 -3 82 -7z m91 4 c-10
-2 -28 -2 -40 0 -13 2 -5 4 17 4 22 1 32 -1 23 -4z m110 0 c-15 -2 -42 -2 -60
0 -18 2 -6 4 27 4 33 0 48 -2 33 -4z m110 0 c-10 -2 -28 -2 -40 0 -13 2 -5 4
17 4 22 1 32 -1 23 -4z m-218 -203 c35 -44 67 -80 71 -80 5 0 9 -12 9 -26 0
-14 -4 -24 -9 -22 -4 2 -45 47 -90 100 -64 77 -77 98 -63 101 9 3 17 5 18 6 1
0 29 -35 64 -79z m84 65 c-5 -13 -9 -13 -23 -3 -9 7 -18 14 -20 15 -2 2 8 3
22 3 20 0 25 -4 21 -15z m75 12 c-2 -1 -12 -9 -21 -16 -15 -12 -18 -11 -18 3
0 10 8 16 22 16 12 0 19 -1 17 -3z m81 -89 c0 -69 4 -96 16 -109 14 -16 13
-17 -31 -17 -33 1 -42 4 -31 10 13 7 16 28 16 108 0 82 3 100 15 100 12 0 15
-17 15 -92z m94 77 c7 -19 -3 -19 -28 0 -19 15 -19 15 1 15 11 0 23 -7 27 -15z
m77 -47 c2 -96 4 -122 12 -135 6 -9 -1 -13 -23 -13 -19 0 -29 4 -25 11 8 13 7
161 -1 183 -4 12 0 16 15 16 19 0 21 -6 22 -62z m93 46 c22 -21 20 -51 -4 -71
-19 -16 -19 -17 10 -70 27 -49 28 -53 10 -53 -13 0 -27 16 -45 51 -23 47 -24
53 -10 69 18 20 20 61 3 78 -9 9 -8 12 4 12 9 0 24 -7 32 -16z m-1075 -19 c3
-17 2 -17 -13 -3 -19 20 -21 31 -3 26 6 -3 14 -13 16 -23z m210 16 c8 -5 16
-19 18 -31 2 -12 -1 -19 -7 -15 -5 3 -10 11 -10 17 0 6 -8 17 -17 24 -20 15
-6 19 16 5z m110 -83 c1 -69 6 -97 18 -110 15 -17 14 -18 -26 -18 -39 0 -41 1
-30 21 16 31 8 177 -11 189 -11 7 -7 10 16 10 l32 0 1 -92z m98 77 c8 -23 0
-24 -19 -3 -15 15 -16 18 -3 18 9 0 18 -7 22 -15z m-772 -7 c2 -7 5 -56 7
-109 l3 -96 -27 -1 c-25 -1 -26 1 -17 26 9 24 5 131 -7 175 -4 12 0 17 16 17
11 0 23 -6 25 -12z m100 -4 c36 -17 65 -65 65 -107 0 -29 -44 -87 -67 -87 -11
0 -10 6 6 26 14 18 21 41 21 71 0 38 -5 50 -34 79 -38 38 -37 40 9 18z m146
-21 c3 -97 9 -146 20 -159 9 -11 5 -14 -22 -14 l-34 0 0 105 c0 93 2 105 18
105 13 0 17 -9 18 -37z m202 6 c-24 -47 -13 -127 21 -156 32 -27 10 -33 -29
-7 -50 32 -57 133 -13 174 31 29 39 25 21 -11z m-143 -70 c0 -18 -2 -20 -15
-9 -13 11 -13 15 -3 21 18 12 18 12 18 -12z m420 5 c0 -8 -5 -12 -10 -9 -6 4
-8 11 -5 16 9 14 15 11 15 -7z m824 7 c3 -5 -1 -11 -9 -14 -9 -4 -12 -1 -8 9
6 16 10 17 17 5z m-1174 -96 c0 -19 -5 -25 -22 -25 -21 1 -22 2 -5 14 9 7 17
18 17 25 0 6 2 11 5 11 3 0 5 -11 5 -25z m418 -10 c-1 -1 -14 -6 -28 -10 l-25
-7 25 23 c18 17 26 20 28 11 2 -8 2 -15 0 -17z m751 8 c2 -2 -10 -3 -29 -3
-28 0 -31 2 -20 15 10 12 16 13 29 3 9 -7 18 -14 20 -15z m-684 -3 c3 -5 -3
-10 -15 -10 -12 0 -18 5 -15 10 3 6 10 10 15 10 5 0 12 -4 15 -10z m2 -272 c4
-28 -6 -18 -12 12 -2 12 -1 20 2 16 4 -4 8 -16 10 -28z"/>
<path d="M3180 2703 c0 -20 81 -42 173 -47 l98 -4 -3 26 -3 27 -132 3 c-73 1
-133 -1 -133 -5z"/>
<path d="M2512 2482 c-28 -3 -33 -7 -30 -25 3 -20 8 -22 56 -19 31 2 52 0 52
-7 0 -11 -92 -125 -110 -136 -5 -3 -10 -19 -10 -36 l0 -29 105 0 105 0 0 25
c0 24 -2 25 -65 25 -36 0 -65 3 -65 6 0 3 9 16 19 28 69 75 101 120 101 141 0
22 -4 24 -62 27 -35 1 -78 2 -96 0z"/>
<path d="M3360 2479 c-37 -8 -70 -40 -70 -68 0 -33 30 -60 85 -75 58 -18 68
-26 59 -50 -11 -30 -83 -26 -91 5 -7 24 -53 26 -53 3 0 -28 19 -52 51 -63 43
-15 65 -14 105 5 34 16 35 18 32 66 -3 56 -18 69 -91 82 -32 6 -38 11 -35 29
4 27 49 35 68 13 7 -9 21 -16 31 -16 28 0 25 44 -3 57 -37 18 -51 20 -88 12z"/>
<path d="M2710 2355 l0 -125 25 0 c26 0 27 3 27 70 0 179 0 180 -27 180 l-25
0 0 -125z"/>
<path d="M2812 2358 c3 -119 4 -123 26 -126 21 -3 22 -1 22 80 1 94 -2 95 70
-19 32 -50 45 -63 65 -63 l25 0 0 125 0 125 -26 0 c-23 0 -25 -3 -24 -37 3
-72 0 -114 -9 -109 -5 3 -27 37 -50 76 -37 62 -45 70 -72 70 l-30 0 3 -122z"/>
<path d="M3077 2474 c-4 -4 -7 -61 -7 -126 l0 -118 95 0 c88 0 95 1 95 20 0
18 -7 20 -65 20 l-65 0 0 35 0 35 58 -3 c52 -2 57 0 60 21 3 21 0 22 -57 22
-58 0 -61 1 -61 25 0 23 4 24 63 27 54 3 62 5 62 23 0 18 -8 20 -85 23 -47 1
-89 0 -93 -4z"/>
<path d="M2866 2059 c-11 -35 -16 -109 -7 -109 5 0 12 6 14 13 4 10 6 10 6 0
1 -7 6 -13 11 -13 7 0 8 19 4 53 -7 54 -20 81 -28 56z"/>
<path d="M2959 2053 c0 -10 -3 -13 -6 -5 -12 30 -22 7 -16 -40 6 -59 23 -89
23 -42 0 16 4 44 9 61 6 20 6 35 0 38 -5 4 -9 -2 -10 -12z"/>
<path d="M3205 2010 c0 -50 2 -56 20 -54 12 1 18 7 15 15 -2 8 -4 32 -3 54 1
32 -2 41 -15 41 -14 0 -17 -10 -17 -56z"/>
<path d="M3277 2057 c-3 -8 -2 -29 2 -47 6 -30 8 -31 21 -16 11 15 12 19 0 26
-11 7 -11 12 -2 23 7 7 9 17 5 20 -10 11 -20 8 -26 -6z"/>
<path d="M3358 2040 c-4 -24 -1 -30 14 -30 15 0 19 6 16 27 -4 37 -25 40 -30
3z"/>
<path d="M3437 2064 c-11 -11 -8 -44 4 -44 5 0 7 5 3 12 -5 8 -2 9 10 5 13 -5
17 -2 14 10 -3 18 -20 27 -31 17z"/>
<path d="M2410 2034 c0 -22 2 -25 15 -14 12 10 13 16 4 26 -16 20 -19 18 -19
-12z"/>
<path d="M2560 2045 c-15 -18 -34 -20 -24 -3 4 7 3 8 -4 4 -20 -12 -13 -31 12
-32 19 -1 23 2 19 15 -4 11 -1 10 10 -4 16 -20 16 -20 17 2 0 28 -14 37 -30
18z"/>
<path d="M2798 2005 c-2 -34 1 -54 7 -52 13 5 19 107 6 107 -5 0 -11 -25 -13
-55z"/>
<path d="M3074 2045 c-3 -8 1 -24 10 -37 20 -28 21 -44 1 -28 -12 10 -15 10
-15 -3 0 -26 25 -40 40 -22 11 13 10 22 -3 51 -18 37 -23 58 -7 34 5 -8 12
-11 15 -8 10 10 -4 28 -21 28 -8 0 -17 -7 -20 -15z"/>
<path d="M3150 2005 c0 -30 5 -55 10 -55 6 0 10 25 10 55 0 30 -4 55 -10 55
-5 0 -10 -25 -10 -55z"/>
<path d="M2451 2028 c0 -13 3 -17 6 -9 5 11 7 11 14 0 6 -10 9 -8 9 9 0 13 -6
22 -15 22 -9 0 -15 -9 -14 -22z"/>
<path d="M2490 2028 c0 -19 2 -20 10 -8 13 19 13 30 0 30 -5 0 -10 -10 -10
-22z"/>
<path d="M2600 2029 c0 -11 5 -17 10 -14 6 3 10 13 10 21 0 8 -4 14 -10 14 -5
0 -10 -9 -10 -21z"/>
<path d="M2636 2035 c4 -8 10 -15 15 -15 4 0 6 7 3 15 -4 8 -10 15 -15 15 -4
0 -6 -7 -3 -15z"/>
<path d="M1535 2010 c-3 -5 -4 -14 -1 -19 3 -5 -1 -11 -9 -15 -8 -3 -15 -11
-15 -17 0 -8 7 -6 18 4 10 10 23 14 27 10 5 -5 3 0 -4 9 -7 9 -10 22 -6 28 3
5 4 10 1 10 -3 0 -8 -4 -11 -10z"/>
<path d="M2601 1961 c-8 -15 -8 -22 1 -27 7 -4 10 -4 6 1 -4 4 -3 14 4 22 6 7
8 16 5 19 -3 3 -10 -3 -16 -15z"/>
<path d="M2653 1938 c-22 -28 -26 -41 -12 -33 8 5 3 -4 -11 -19 -14 -15 -25
-33 -25 -39 0 -20 -68 -126 -77 -121 -4 3 -8 0 -8 -5 0 -6 -9 -11 -20 -11 -10
0 -23 -7 -28 -16 -8 -14 -11 -12 -17 12 -5 16 -9 40 -11 54 -3 35 -3 35 -16
22 -16 -16 -31 -15 -22 1 4 6 -4 2 -18 -11 -29 -26 -31 -41 -8 -64 15 -16 16
-16 17 3 1 11 -2 17 -8 14 -5 -4 -9 -2 -9 2 0 5 10 14 23 22 19 12 21 12 12 0
-6 -8 -11 -30 -10 -50 0 -32 -2 -35 -24 -31 -15 3 -22 1 -17 -6 3 -6 1 -14 -5
-18 -7 -4 -9 -3 -6 3 7 11 -26 47 -35 38 -2 -3 -5 1 -5 8 0 7 10 13 21 12 15
-1 20 -8 18 -21 -2 -15 -1 -16 7 -4 6 9 6 19 1 25 -9 11 -7 46 5 64 3 5 1 13
-5 16 -6 4 -9 3 -8 -2 3 -8 -5 -13 -23 -13 -5 0 -7 6 -3 13 4 6 -5 1 -19 -12
-15 -13 -24 -28 -20 -34 3 -6 1 -7 -5 -3 -6 4 -8 14 -5 22 5 13 -1 15 -33 11
-27 -4 -44 -1 -56 10 -15 13 -20 14 -35 2 -15 -11 -16 -11 -5 1 6 8 12 18 12
23 0 4 -6 5 -12 1 -8 -5 -7 0 2 11 8 10 10 16 3 12 -6 -4 -19 0 -27 9 -12 11
-16 12 -16 2 0 -10 -3 -9 -11 2 -9 12 -10 12 -5 -4 5 -14 3 -17 -11 -11 -10 4
-24 8 -30 8 -12 0 -17 10 -15 28 1 3 -12 5 -28 5 -16 0 -27 -3 -24 -7 2 -5 11
-6 18 -3 8 3 16 1 19 -3 3 -5 -11 -9 -32 -8 -29 1 -42 -4 -51 -20 -11 -17 -11
-18 1 -8 9 7 20 8 29 3 8 -5 18 -6 24 -3 5 3 7 2 3 -3 -9 -15 -82 -11 -79 4 1
8 -2 11 -8 7 -6 -3 -7 -11 -4 -17 4 -6 -3 -5 -15 2 -12 6 -25 18 -28 26 -3 9
-12 13 -21 9 -13 -5 -13 -3 -1 12 12 15 10 15 -9 -1 -23 -20 -24 -55 -3 -80
10 -12 8 -46 -3 -65 -7 -11 39 -53 49 -44 4 5 5 3 2 -4 -4 -6 13 -37 37 -70
24 -32 42 -61 40 -65 -3 -4 1 -6 8 -3 7 2 22 -8 33 -23 12 -17 13 -22 4 -15
-9 7 -18 10 -21 7 -3 -3 -22 4 -42 15 -20 12 -36 17 -36 13 0 -4 -5 1 -11 11
-6 9 -14 15 -20 12 -5 -4 -9 -2 -9 3 0 6 -7 12 -15 16 -8 3 -15 2 -15 -3 0 -5
37 -32 83 -61 45 -29 92 -62 105 -73 12 -11 22 -17 22 -13 0 4 10 -2 22 -14
12 -11 48 -32 79 -47 31 -15 62 -36 69 -46 8 -13 11 -59 11 -132 -2 -124 3
-134 56 -133 34 1 36 18 2 18 -12 0 -19 7 -19 20 0 11 -5 20 -11 20 -6 0 -8 7
-5 16 4 10 2 13 -7 8 -6 -4 -4 1 5 11 23 24 93 24 116 0 13 -13 13 -16 2 -9
-12 6 -13 5 -4 -7 12 -15 15 -51 4 -44 -4 3 -15 -4 -25 -15 -18 -19 -17 -20 3
-20 22 0 32 -19 12 -21 -5 -1 -16 -2 -22 -3 -7 -1 -12 -8 -10 -17 1 -9 -7 -24
-18 -34 -21 -19 -26 -50 -10 -60 6 -4 10 6 10 24 0 32 42 75 48 48 4 -18 -37
-107 -49 -107 -7 0 -8 -12 -4 -31 5 -20 3 -34 -4 -39 -9 -5 -5 -22 13 -63 13
-30 22 -58 18 -61 -3 -3 0 -6 6 -6 16 0 15 49 -1 80 -19 37 -13 109 13 152 24
42 39 43 110 9 49 -23 61 -54 52 -133 -7 -57 -6 -65 7 -61 14 4 14 3 0 -9 -21
-18 -49 -72 -49 -97 0 -27 31 -43 47 -26 6 7 9 15 6 19 -3 3 0 13 8 23 12 15
12 16 -1 8 -12 -7 -13 -6 -4 6 7 8 15 38 19 67 4 29 9 52 10 50 6 -5 17 -61
17 -80 -1 -10 3 -18 7 -18 4 0 13 -24 21 -52 7 -29 19 -67 26 -84 l13 -31 238
-5 c267 -6 246 -10 338 73 l58 54 -119 112 -119 113 -55 0 c-52 0 -59 3 -91
38 -20 20 -49 58 -65 84 -16 27 -32 48 -37 48 -4 0 -54 44 -110 99 -57 54
-113 101 -125 105 -12 4 -22 13 -22 19 0 38 -27 94 -66 138 -24 28 -42 55 -38
61 4 5 23 17 43 25 20 8 48 24 63 34 14 11 39 19 54 19 15 0 54 7 87 17 49 13
64 23 88 56 29 40 37 67 20 67 -12 0 -32 -26 -25 -33 3 -3 -1 -4 -10 -3 -8 1
-19 6 -23 11 -4 4 -3 5 4 1 8 -4 11 1 10 14 -1 19 -1 19 -22 0 -12 -11 -26
-17 -30 -13 -5 5 -4 1 2 -7 9 -13 6 -15 -20 -14 -18 1 -36 3 -42 4 -5 1 -14 2
-20 0 -5 -1 -4 4 3 11 6 7 12 17 12 22 0 4 -6 5 -12 1 -7 -4 -2 5 11 19 13 15
28 24 34 20 6 -3 7 -1 3 5 -4 7 -2 13 3 13 6 1 16 2 21 3 6 0 14 6 18 11 4 6
16 17 26 25 18 13 19 13 11 0 -5 -10 -5 -12 2 -5 18 18 65 105 56 105 -4 0
-17 -7 -27 -15 -10 -8 -23 -12 -29 -8 -6 3 -7 1 -3 -5 4 -7 2 -12 -5 -12 -9 0
-9 -3 0 -14 9 -11 9 -16 0 -22 -8 -5 -9 -3 -4 6 5 9 4 11 -3 6 -7 -4 -12 -14
-12 -22 0 -8 -6 -13 -12 -11 -8 1 -12 -6 -10 -17 3 -18 2 -18 -14 -5 -11 8
-15 9 -10 2 4 -7 4 -14 -1 -14 -39 -7 -51 -5 -46 6 2 7 0 16 -6 20 -8 4 -8 12
-1 26 6 10 8 19 5 19 -3 0 2 11 11 25 9 14 13 25 9 25 -4 0 -2 6 4 14 7 8 46
20 87 27 50 8 74 16 74 25 0 13 -21 19 -45 14 -5 -1 -18 -3 -28 -5 -9 -2 -23
-7 -30 -11 -9 -5 -9 -4 0 6 10 11 9 16 -5 27 -9 8 -11 11 -3 7 9 -5 12 -3 7 4
-9 15 -21 15 -33 0z m-593 -118 c0 -10 33 -9 47 2 7 5 14 5 17 -1 9 -14 -4
-18 -54 -15 -54 2 -52 2 -46 12 6 10 36 12 36 2z m260 -76 c-1 -4 4 -11 12
-16 11 -8 10 -9 -1 -6 -8 2 -15 15 -17 29 -1 13 0 18 2 12 3 -7 5 -15 4 -19z
m117 0 c-3 -4 -2 -15 3 -25 7 -12 6 -20 -2 -25 -7 -4 -10 -4 -6 1 4 4 3 15 -2
25 -8 16 -4 30 8 30 3 0 2 -3 -1 -6z m-582 -52 c-3 -3 -11 0 -18 7 -9 10 -8
11 6 5 10 -3 15 -9 12 -12z m125 -87 c0 -2 -9 -3 -19 -2 -11 0 -18 5 -15 9 4
6 34 0 34 -7z m35 -43 c-3 -3 -11 0 -18 7 -9 10 -8 11 6 5 10 -3 15 -9 12 -12z
m290 -312 c3 -5 -3 -10 -14 -10 -12 0 -21 5 -21 10 0 6 6 10 14 10 8 0 18 -4
21 -10z"/>
<path d="M1694 1929 c-4 -7 -3 -9 4 -5 5 3 13 0 15 -6 4 -9 6 -10 6 -1 1 17
-16 25 -25 12z"/>
<path d="M3038 1913 c7 -3 16 -2 19 1 4 3 -2 6 -13 5 -11 0 -14 -3 -6 -6z"/>
<path d="M2233 1815 c0 -8 4 -12 9 -9 5 3 6 10 3 15 -9 13 -12 11 -12 -6z"/>
<path d="M2195 1791 c-3 -5 -2 -12 3 -15 5 -3 9 1 9 9 0 17 -3 19 -12 6z"/>
<path d="M1813 1735 c0 -8 4 -12 9 -9 5 3 6 10 3 15 -9 13 -12 11 -12 -6z"/>
<path d="M1656 1688 c3 -5 10 -6 15 -3 13 9 11 12 -6 12 -8 0 -12 -4 -9 -9z"/>
<path d="M2639 1658 c-6 -12 -5 -46 2 -43 4 3 7 14 6 25 -1 18 -5 25 -8 18z"/>
<path d="M2250 1021 c1 -17 19 -31 33 -25 24 9 21 21 -8 26 -14 3 -25 2 -25
-1z"/>
<path d="M2405 888 c-12 -36 -9 -53 13 -64 13 -6 23 -14 23 -18 -1 -8 6 -9 22
-3 8 4 8 6 0 6 -6 1 -9 10 -6 21 3 11 9 18 12 15 11 -6 10 28 -2 43 -5 6 -14
12 -19 12 -5 0 -6 -6 -2 -12 6 -10 4 -10 -7 0 -7 6 -17 12 -21 12 -5 0 -11 -6
-13 -12z"/>
<path d="M2386 809 c-2 -8 -7 -45 -10 -84 -5 -68 -5 -70 20 -82 22 -10 26 -9
33 10 5 12 7 32 4 45 -2 16 0 21 8 16 8 -4 9 -3 5 5 -4 6 -11 9 -16 6 -8 -5
-21 27 -23 62 -2 27 -15 41 -21 22z"/>
<path d="M2555 638 c-21 -70 -25 -87 -19 -101 6 -17 23 -23 25 -9 1 4 3 33 4
65 2 55 -1 70 -10 45z"/>
</g>
</svg>
